<?xml version="1.0" standalone="no"?>
<!DOCTYPE svg PUBLIC "-//W3C//DTD SVG 20010904//EN"
 "http://www.w3.org/TR/2001/REC-SVG-20010904/DTD/svg10.dtd">
<svg version="1.0" xmlns="http://www.w3.org/2000/svg"
 width="741.000000pt" height="744.000000pt" viewBox="0 0 741.000000 744.000000"
 preserveAspectRatio="xMidYMid meet">

<g transform="translate(0.000000,744.000000) scale(0.100000,-0.100000)"
  fill="#03a9f4"
  stroke="none">
<path d="M3556 7360 c-143 -37 -304 -160 -439 -339 -139 -182 -289 -491 -391
-802 -18 -54 -35 -101 -38 -104 -2 -3 -58 20 -124 51 -393 184 -717 274 -993
274 -214 0 -365 -52 -477 -164 -137 -138 -190 -366 -149 -641 37 -242 121
-494 260 -783 56 -114 80 -174 72 -177 -7 -3 -52 -19 -102 -36 -558 -193 -951
-462 -1082 -739 -191 -404 133 -804 892 -1103 77 -30 170 -64 208 -77 37 -12
67 -25 67 -30 0 -4 -11 -33 -25 -65 -42 -93 -135 -382 -165 -510 -45 -194 -55
-278 -54 -455 1 -136 5 -179 22 -245 32 -115 78 -200 147 -270 68 -69 136
-108 233 -136 92 -26 294 -26 429 0 202 39 505 160 744 297 125 71 111 76 154
-56 198 -604 493 -1046 782 -1171 150 -65 305 -58 457 20 77 38 108 62 196
151 199 198 347 464 497 890 30 85 56 156 58 158 1 2 48 -20 104 -47 154 -78
386 -168 566 -220 212 -61 486 -81 644 -47 319 70 480 347 432 742 -32 260
-116 519 -276 851 l-73 151 106 37 c552 191 946 456 1086 733 60 119 70 271
26 401 -115 343 -653 675 -1410 872 -69 18 -129 35 -133 39 -4 4 30 92 76 196
227 510 325 921 296 1246 -43 496 -400 682 -985 512 -148 -42 -385 -144 -554
-238 -60 -34 -86 -43 -89 -34 -14 41 -152 307 -201 384 -145 231 -325 403
-489 465 -64 24 -239 35 -305 19z m-4 -748 c149 -49 296 -187 421 -394 26 -43
47 -81 47 -86 0 -4 -33 -33 -72 -63 -88 -65 -365 -295 -428 -353 -81 -75 -65
-76 -197 12 -133 89 -346 221 -440 272 -35 19 -63 41 -63 49 0 22 77 167 133
251 101 151 249 279 362 313 69 21 170 21 237 -1z m1581 -227 c172 -45 281
-167 322 -361 47 -223 -26 -596 -193 -984 -44 -103 -52 -115 -73 -113 -68 8
-241 32 -244 35 -2 1 -10 55 -19 118 -50 348 -147 762 -255 1087 -28 83 -51
154 -51 157 0 8 157 54 220 65 88 14 230 12 293 -4z m-1019 -447 c84 -193 184
-523 240 -792 14 -66 23 -123 20 -128 -6 -9 -75 -9 -116 1 -15 3 -69 42 -120
86 -140 122 -291 243 -476 382 -92 69 -168 129 -170 133 -6 15 541 429 568
430 3 0 27 -50 54 -112z m-2103 -249 c181 -31 529 -152 529 -184 0 -7 -7 -48
-15 -91 -21 -109 -65 -413 -65 -446 0 -29 -8 -33 -85 -43 -202 -26 -642 -117
-845 -175 -57 -16 -107 -26 -111 -22 -13 13 -56 165 -78 269 -14 67 -21 139
-21 210 0 175 36 280 127 371 120 120 300 156 564 111z m759 -287 c183 -100
260 -145 257 -153 -1 -4 -60 -68 -131 -143 -119 -125 -131 -136 -165 -136 -20
-1 -78 -7 -128 -14 -51 -7 -95 -11 -97 -9 -11 11 99 533 113 533 3 0 71 -35
151 -78z m400 -241 c110 -70 193 -131 187 -138 -3 -2 -36 -6 -74 -9 -273 -17
-392 -25 -415 -30 -16 -3 -28 -2 -28 3 0 18 222 243 233 236 7 -4 50 -32 97
-62z m989 -803 c69 -67 172 -171 229 -229 l102 -107 0 -131 0 -132 -82 -102
c-367 -456 -766 -860 -1151 -1165 l-67 -54 -33 27 c-120 101 -360 328 -547
520 -170 174 -159 154 -170 291 -16 207 -22 651 -11 878 5 120 12 220 14 223
18 17 494 75 767 93 261 17 300 18 569 15 l253 -3 127 -124z m-1763 -120 c-8
-173 -9 -738 -1 -898 l6 -125 -57 60 c-102 108 -404 493 -404 515 0 12 198
319 289 447 86 122 92 127 155 132 18 1 19 -5 12 -131z m-156 96 c0 -4 -15
-25 -33 -48 -19 -23 -96 -129 -171 -236 -76 -107 -139 -196 -141 -198 -4 -4
-98 135 -159 237 -31 51 -56 95 -54 97 10 9 214 72 358 109 167 44 200 50 200
39z m3402 -125 c315 -106 580 -257 721 -409 204 -220 194 -463 -27 -684 -65
-65 -272 -216 -297 -216 -4 0 -26 33 -49 73 -134 226 -426 639 -619 871 l-81
99 22 37 c115 186 174 270 190 270 10 0 73 -19 140 -41z m-4013 -84 c11 -19
68 -100 126 -180 l106 -145 -104 -168 c-156 -253 -327 -563 -392 -712 -16 -36
-33 -70 -38 -77 -12 -17 -57 5 -192 92 -173 112 -286 235 -330 360 -24 67 -25
193 -1 262 55 162 241 337 498 469 102 52 283 133 300 134 3 0 15 -16 27 -35z
m377 -510 c48 -60 142 -172 208 -248 67 -77 137 -158 157 -182 l35 -43 13
-163 c13 -163 35 -383 47 -448 l5 -34 -53 7 c-191 26 -582 121 -778 191 -133
47 -150 56 -150 79 0 33 83 279 133 396 106 246 270 565 288 558 4 -2 47 -52
95 -113z m3112 -382 c103 -154 216 -343 280 -470 l52 -102 -67 -20 c-94 -28
-359 -91 -383 -91 -24 0 -24 -4 -5 197 14 156 35 491 35 565 0 21 2 38 5 38 2
0 40 -53 83 -117z m-2398 -406 c140 -139 288 -284 329 -320 41 -37 71 -70 68
-73 -8 -8 -245 10 -430 33 -131 16 -139 18 -148 41 -22 57 -91 572 -76 572 1
0 117 -114 257 -253z m1700 -167 c-33 -227 -15 -203 -156 -216 -65 -7 -143
-12 -172 -13 l-53 -1 198 210 c155 164 199 206 201 190 2 -12 -6 -88 -18 -170z
m-2760 -69 c165 -40 388 -84 510 -101 36 -5 117 -16 180 -24 63 -9 117 -19
121 -24 4 -4 14 -56 24 -117 9 -60 23 -145 31 -189 7 -43 14 -86 14 -96 0 -34
-274 -144 -450 -180 -353 -72 -583 52 -645 347 -17 81 -19 231 -4 340 12 90
15 96 37 89 10 -3 91 -23 182 -45z m3868 -108 c142 -364 166 -640 70 -827 -54
-106 -182 -193 -320 -216 -96 -16 -246 -8 -381 20 -87 19 -107 27 -107 41 0
10 13 71 29 136 43 170 88 409 119 633 l28 195 45 12 c24 6 60 12 79 13 19 0
114 16 210 34 96 19 180 34 186 35 6 0 25 -34 42 -76z m-2738 -68 c96 -8 200
-15 230 -16 30 0 63 -4 74 -8 17 -6 14 -11 -20 -37 -100 -78 -409 -274 -431
-274 -6 0 -18 30 -28 68 -16 66 -65 281 -65 289 0 2 15 1 33 -2 17 -3 111 -12
207 -20z m1582 -10 c20 -20 -149 -665 -174 -665 -32 0 -533 318 -533 338 0 4
54 57 120 117 66 61 140 129 165 152 l45 43 85 1 c70 1 234 11 276 17 6 1 13
0 16 -3z m-589 -503 c95 -71 218 -160 275 -197 122 -81 120 -61 27 -250 -82
-167 -150 -270 -244 -368 -135 -141 -274 -201 -414 -179 -160 24 -308 140
-445 346 -62 92 -122 195 -122 209 0 2 39 30 88 62 164 110 347 249 556 423
55 45 101 82 103 82 2 0 81 -58 176 -128z"/>
</g>
</svg>
